<?xml version="1.0" encoding="UTF-8"?>
<svg width="34px" height="33px" viewBox="0 0 34 33" version="1.1" xmlns="http://www.w3.org/2000/svg" xmlns:xlink="http://www.w3.org/1999/xlink">
    <title>Win_demo_w@3x</title>
    <g id="Win_demo_w" stroke="none" stroke-width="1" fill="none" fill-rule="evenodd">
        <g id="W" transform="translate(5.000000, 7.000000)" fill="#FFFFFF">
            <path d="M24.9990385,2.48689958e-14 C23.0019231,6.75673077 20.9405449,13.5528846 18.8174679,20.2709936 C16.9854167,20.2270833 16.069391,20.2205128 14.2373397,20.1275641 C13.6298077,18.1147436 13.0251603,16.0745192 12.4221154,14.0602564 C11.8022436,15.999359 11.1746795,17.9942308 10.5394231,19.9282051 C8.70737179,19.7915064 7.79134615,19.7407051 5.95929487,19.544391 C4.01538462,13.1113782 2.05096154,6.59615385 1.42108547e-14,0.196474359 C0.51963141,0.194551282 1.03926282,0.18520633 1.55889173,0.172115385 L4.67661508,0.0780248397 L4.67661508,0.0780248397 L6.23541667,0.0524038462 C6.93445513,2.3400641 7.62932692,4.74647436 8.32115385,7.03637821 C9.04967949,4.74246795 9.77067308,2.44679487 10.4846154,0.148397436 C12.0961538,0.139903846 12.9019231,0.06875 14.5134615,0.0592948718 C15.2083333,2.43125 15.9033654,4.86987179 16.5991987,7.24134615 C17.3269231,4.86298077 18.0479167,2.48285256 18.7626603,0.100641026 C20.8415064,0.0876602564 22.9201923,0.0139423077 24.9990385,2.48689958e-14 Z M16.7236859,16.6647596 C16.1815385,16.6647596 15.7421154,17.1041827 15.7421154,17.6463301 C15.7421154,18.0335783 15.9663108,18.3684161 16.2919981,18.5281399 L16.3926584,18.5708062 C16.496086,18.6078599 16.6075435,18.6280449 16.7237179,18.6280449 C17.2658654,18.6280449 17.7052885,18.1884615 17.7052885,17.6463141 C17.7052885,17.1041667 17.2658654,16.6647436 16.7237179,16.6647436 L16.7236859,16.6647596 Z M7.95852564,16.1739904 L7.84401415,16.1806416 C7.35581338,16.2373373 6.97692308,16.6521864 6.97692308,17.155609 C6.97692308,17.6977564 7.41634615,18.1371795 7.95849359,18.1371795 L7.95849359,18.1371795 C8.50067308,18.1371314 8.94009615,17.6977083 8.94009615,17.1555609 C8.94009615,16.6134135 8.50067308,16.1739904 7.95852564,16.1739904 Z M18.5242949,9.17387821 C17.9821474,9.17387821 17.5427244,9.61330128 17.5427244,10.1554487 C17.5427244,10.2904105 17.5699557,10.4190063 17.6192242,10.536042 C17.7679336,10.889144 18.1171733,11.1370192 18.524359,11.1370192 L18.524359,11.1370192 C18.6404693,11.1370192 18.7519268,11.1168416 18.8553544,11.0797995 L18.9560468,11.0372584 C19.281734,10.8775347 19.5059295,10.5426969 19.5059295,10.1554487 C19.5059295,9.61330128 19.0665064,9.17387821 18.524359,9.17387821 L18.5242949,9.17387821 Z M12.4349359,9.17387821 C11.8929487,9.17387821 11.4533654,9.61330128 11.4533654,10.1554487 C11.4533654,10.6975962 11.8929487,11.1370192 12.4349359,11.1370192 C12.9770833,11.1370192 13.4166667,10.6975962 13.4166667,10.1554487 C13.4166667,9.61330128 12.9770833,9.17387821 12.4349359,9.17387821 Z M6.21185897,8.93958333 C5.66971154,8.93958333 5.23028846,9.37900641 5.23028846,9.92115385 C5.23028846,10.4633013 5.66971154,10.9027244 6.21185897,10.9027244 L6.21185897,10.9027244 C6.75399038,10.9026763 7.19341346,10.4632532 7.19341346,9.92110577 C7.19341346,9.41768315 6.81452316,9.00283409 6.32632238,8.94613842 Z M20.9557692,1.70320513 C20.4136218,1.70320513 19.9741987,2.14278846 19.9741987,2.6849359 C19.9741987,3.22708333 20.4136218,3.66650641 20.9557692,3.66650641 L20.9557692,3.66650641 C21.4979647,3.66649038 21.9373878,3.22706731 21.9373878,2.68491987 C21.9373878,2.32212948 21.7406175,2.00533828 21.4479688,1.83543823 C21.3037282,1.75145569 21.1353865,1.70320513 20.9557692,1.70320513 Z M12.4349359,1.70320513 C11.8929487,1.70320513 11.4533654,2.14278846 11.4533654,2.6849359 C11.4533654,3.22708333 11.8929487,3.66650641 12.4349359,3.66650641 L12.4349359,3.66650641 C12.6783448,3.66641026 12.9009938,3.57787988 13.0724992,3.4312669 C13.2831378,3.2513373 13.4166667,2.9837385 13.4166667,2.6849359 C13.4166667,2.14278846 12.9770833,1.70320513 12.4349359,1.70320513 Z M3.82788462,1.56714744 C3.28573718,1.56714744 2.84615385,2.00657051 2.84615385,2.54871795 C2.84615385,3.09086538 3.28573718,3.53028846 3.82788462,3.53028846 L3.82788462,3.53028846 C4.36998397,3.53024038 4.80940705,3.09081731 4.80940705,2.54866987 C4.80940705,2.04524725 4.43051675,1.63039819 3.94231597,1.57370252 Z" id="Combined-Shape"></path>
        </g>
    </g>
</svg>